<svg width="48" height="50" viewBox="0 0 48 50" fill="none" xmlns="http://www.w3.org/2000/svg" xmlns:xlink="http://www.w3.org/1999/xlink">
<g style="isolation:isolate">
<path d="M42.282,4.205L42.285,3.461L42.282,3.461L42.282,4.205ZM5.359,4.205L5.359,3.461L5.352,3.461L5.359,4.205ZM0.762,9.205L0.018,9.202L0.018,9.205L0.762,9.205ZM0.762,39.205L0.018,39.205L0.018,39.208L0.762,39.205ZM5.359,44.205L5.352,44.949L5.359,44.949L5.359,44.205ZM46.897,9.205L47.641,9.205L47.641,9.202L46.897,9.205ZM42.282,3.461L5.359,3.461L5.359,4.949L42.282,4.949L42.282,3.461ZM5.352,3.461C3.917,3.474 2.558,4.099 1.565,5.179L2.66,6.186C3.388,5.394 4.361,4.958 5.365,4.949L5.352,3.461ZM1.565,5.179C0.573,6.257 0.023,7.704 0.018,9.202L1.506,9.208C1.51,8.064 1.93,6.979 2.66,6.186L1.565,5.179ZM0.018,9.205L0.018,39.205L1.506,39.205L1.506,9.205L0.018,9.205ZM0.018,39.208C0.023,40.706 0.573,42.153 1.565,43.231L2.66,42.224C1.93,41.431 1.51,40.346 1.506,39.202L0.018,39.208ZM1.565,43.231C2.558,44.311 3.917,44.936 5.352,44.949L5.365,43.461C4.361,43.453 3.388,43.016 2.66,42.224L1.565,43.231ZM5.359,44.949L42.282,44.949L42.282,43.461L5.359,43.461L5.359,44.949ZM42.282,44.949C43.723,44.949 45.092,44.328 46.092,43.245L44.999,42.236C44.267,43.028 43.289,43.461 42.282,43.461L42.282,44.949ZM46.092,43.245C47.09,42.164 47.641,40.71 47.641,39.205L46.153,39.205C46.153,40.352 45.732,41.442 44.999,42.236L46.092,43.245ZM47.641,39.205L47.641,9.205L46.153,9.205L46.153,39.205L47.641,39.205ZM47.641,9.202C47.636,7.7 47.083,6.25 46.087,5.171L44.993,6.18C45.726,6.974 46.149,8.061 46.153,9.208L47.641,9.202ZM46.087,5.171C45.089,4.09 43.724,3.467 42.285,3.461L42.279,4.949C43.285,4.953 44.262,5.388 44.993,6.18L46.087,5.171Z" fill="#DADADA"/>
<path d="M23.82,21.704L23.405,22.321L23.843,22.616L24.265,22.3L23.82,21.704ZM1.639,7.681L23.405,22.321L24.236,21.087L2.469,6.447L1.639,7.681ZM24.265,22.3L45.644,6.34L44.754,5.148L23.375,21.108L24.265,22.3Z" fill="#DADADA"/>
</g>
</svg>
