<svg width="52" height="82" viewBox="0 0 52 82" fill="none" xmlns="http://www.w3.org/2000/svg" xmlns:xlink="http://www.w3.org/1999/xlink">
<path d="M7.342,48.708L35.419,79.771C36.063,80.486 36.979,80.893 37.937,80.893L48.385,80.893C51.336,80.893 52.885,77.386 50.898,75.202L20.557,41.814C19.344,40.481 19.382,38.432 20.644,37.147L50.416,6.73C52.523,4.578 51.001,0.952 47.989,0.952L37.764,0.952C36.87,0.952 36.009,1.304 35.37,1.939L11.431,25.678L0.935,36.871C-0.267,38.155 -0.294,40.15 0.876,41.462L7.342,48.708Z" fill="#30AFBF"/>
<path d="M13.474,38.421L22.757,29.153L19.112,25.603L18.185,26.351L21.056,29.158L12.959,37.266L13.474,38.421Z" fill="#FFFFFF"/>
<path d="M18.754,27.245C19.397,27.245 19.918,26.723 19.918,26.079C19.918,25.436 19.397,24.914 18.754,24.914C18.111,24.914 17.589,25.436 17.589,26.079C17.589,26.723 18.111,27.245 18.754,27.245Z" fill="#FFFFFF"/>
<path d="M12.959,31.087C13.602,31.087 14.123,30.566 14.123,29.922C14.123,29.279 13.602,28.757 12.959,28.757C12.316,28.757 11.794,29.279 11.794,29.922C11.794,30.566 12.316,31.087 12.959,31.087Z" fill="#FFFFFF"/>
<path d="M19.404,56.833C20.128,56.833 20.715,56.246 20.715,55.521C20.715,54.797 20.128,54.209 19.404,54.209C18.68,54.209 18.093,54.797 18.093,55.521C18.093,56.246 18.68,56.833 19.404,56.833Z" fill="#FFFFFF"/>
<path d="M9.395,33.077L9.926,34.291L13.251,30.545L12.39,29.727L9.395,33.077Z" fill="#FFFFFF"/>
<path d="M10.305,44.535L9.113,44.974L18.943,55.852L19.853,55.012L10.305,44.535Z" fill="#FFFFFF"/>
<path d="M15.927,40.351L9.623,46.66C9.162,47.12 8.42,47.12 7.96,46.66L1.596,40.291C1.136,39.83 1.136,39.088 1.596,38.627L7.9,32.318C8.361,31.857 9.103,31.857 9.563,32.318L15.927,38.687C16.387,39.147 16.387,39.89 15.927,40.351Z" fill="#FFFFFF"/>
<path d="M14.584,40.177L9.449,45.315C9.081,45.684 8.485,45.684 8.117,45.315L2.939,40.134C2.571,39.765 2.571,39.169 2.939,38.8L8.074,33.662C8.442,33.294 9.038,33.294 9.406,33.662L14.589,38.849C14.952,39.218 14.952,39.809 14.584,40.177Z" fill="#30AFBF"/>
<path d="M5.577,0.893L5.577,31.944L20.687,16.622L5.577,0.893Z" fill="#6B6965"/>
<path d="M20.622,63.397L5.577,46.725L5.577,80.882L20.622,63.397Z" fill="#6B6965"/>
</svg>
