<svg width="18" height="34" viewBox="0 0 18 34" fill="none" xmlns="http://www.w3.org/2000/svg" xmlns:xlink="http://www.w3.org/1999/xlink">
<path d="M-0.387,30.498C-0.777,30.888 -0.777,31.522 -0.387,31.912C0.004,32.303 0.637,32.303 1.027,31.912L-0.387,30.498ZM15.32,16.205L16.027,16.912C16.418,16.522 16.418,15.888 16.027,15.498L15.32,16.205ZM1.027,0.498C0.637,0.107 0.004,0.107 -0.387,0.498C-0.777,0.888 -0.777,1.522 -0.387,1.912L1.027,0.498ZM1.027,31.912L16.027,16.912L14.613,15.498L-0.387,30.498L1.027,31.912ZM16.027,15.498L1.027,0.498L-0.387,1.912L14.613,16.912L16.027,15.498Z" fill="#2BCAD6"/>
</svg>
