<svg width="40" height="38" viewBox="0 0 40 38" fill="none" xmlns="http://www.w3.org/2000/svg" xmlns:xlink="http://www.w3.org/1999/xlink">
<path d="M38.436,32.387L39.134,32.387L39.134,32.356L39.131,32.326L38.436,32.387ZM38.436,35.919L38.436,36.617L39.134,36.617L39.134,35.919L38.436,35.919ZM1.513,35.919L0.814,35.919L0.814,36.617L1.513,36.617L1.513,35.919ZM1.513,32.387L0.824,32.274L0.814,32.33L0.814,32.387L1.513,32.387ZM10.743,10.204L11.436,10.293L11.442,10.249L11.442,10.204L10.743,10.204ZM37.737,32.387L37.737,35.919L39.134,35.919L39.134,32.387L37.737,32.387ZM38.436,35.22L1.513,35.22L1.513,36.617L38.436,36.617L38.436,35.22ZM2.211,35.919L2.211,32.387L0.814,32.387L0.814,35.919L2.211,35.919ZM2.202,32.501C3.17,26.626 7.809,24.125 11.751,22.754C12.73,22.414 13.652,22.148 14.454,21.917C15.237,21.692 15.949,21.488 16.445,21.278C16.687,21.176 16.949,21.044 17.147,20.862C17.364,20.663 17.591,20.312 17.473,19.86C17.381,19.503 17.107,19.26 16.893,19.105C16.655,18.931 16.341,18.761 15.966,18.588L15.379,19.855C15.722,20.014 15.941,20.139 16.072,20.234C16.227,20.347 16.156,20.345 16.122,20.21C16.062,19.981 16.201,19.835 16.203,19.833C16.203,19.833 16.202,19.834 16.198,19.837C16.195,19.84 16.19,19.844 16.183,19.848C16.17,19.858 16.15,19.87 16.124,19.885C16.07,19.916 15.997,19.951 15.902,19.992C15.501,20.161 14.887,20.339 14.067,20.575C13.268,20.806 12.312,21.081 11.292,21.435C7.235,22.846 1.923,25.6 0.824,32.274L2.202,32.501ZM15.966,18.588C13.33,17.368 12.206,15.314 11.73,13.536C11.49,12.642 11.417,11.821 11.404,11.225C11.398,10.927 11.407,10.688 11.417,10.526C11.422,10.444 11.427,10.383 11.431,10.343C11.433,10.323 11.434,10.309 11.435,10.301C11.436,10.296 11.436,10.293 11.436,10.292C11.436,10.292 11.436,10.291 11.436,10.291C11.436,10.291 11.436,10.291 11.436,10.292C11.436,10.292 11.436,10.292 11.436,10.292C11.436,10.292 11.436,10.293 10.743,10.204C10.051,10.116 10.051,10.116 10.051,10.116C10.051,10.117 10.051,10.117 10.051,10.117C10.051,10.118 10.05,10.119 10.05,10.119C10.05,10.121 10.05,10.123 10.05,10.126C10.049,10.13 10.048,10.137 10.047,10.145C10.046,10.16 10.043,10.182 10.041,10.209C10.035,10.264 10.029,10.342 10.023,10.44C10.011,10.636 10.001,10.914 10.008,11.254C10.023,11.933 10.105,12.869 10.38,13.897C10.934,15.963 12.274,18.418 15.379,19.855L15.966,18.588ZM11.442,10.204C11.442,8.134 12.327,6.136 13.922,4.655L12.972,3.632C11.105,5.365 10.045,7.728 10.045,10.204L11.442,10.204ZM13.922,4.655C15.519,3.172 17.695,2.331 19.974,2.331L19.974,0.935C17.357,0.935 14.837,1.9 12.972,3.632L13.922,4.655ZM19.974,2.331C22.253,2.331 24.429,3.172 26.026,4.655L26.976,3.632C25.111,1.9 22.591,0.935 19.974,0.935L19.974,2.331ZM26.026,4.655C27.621,6.136 28.507,8.134 28.507,10.204L29.903,10.204C29.903,7.728 28.844,5.365 26.976,3.632L26.026,4.655ZM28.507,10.204C28.507,10.243 28.534,10.526 28.47,11.051C28.406,11.575 28.25,12.317 27.882,13.161C27.152,14.833 25.564,16.962 22.062,18.588L22.65,19.855C26.458,18.086 28.294,15.707 29.162,13.719C29.592,12.733 29.778,11.857 29.856,11.221C29.934,10.585 29.903,10.166 29.903,10.204L28.507,10.204ZM22.062,18.588C21.687,18.762 21.368,18.94 21.137,19.131C20.933,19.299 20.619,19.625 20.663,20.099C20.705,20.56 21.057,20.822 21.255,20.943C21.486,21.085 21.778,21.199 22.08,21.298C22.69,21.499 23.535,21.698 24.472,21.925C25.424,22.155 26.503,22.422 27.632,22.763C32.216,24.15 37.229,26.656 37.74,32.448L39.131,32.326C38.535,25.57 32.646,22.821 28.036,21.427C26.867,21.073 25.755,20.799 24.801,20.567C23.832,20.333 23.059,20.15 22.516,19.971C22.242,19.881 22.074,19.807 21.985,19.752C21.862,19.677 22.032,19.733 22.053,19.972C22.076,20.223 21.904,20.308 22.025,20.208C22.119,20.131 22.309,20.013 22.65,19.855L22.062,18.588Z" fill="#DADADA"/>
</svg>
