<svg width="36" height="46" viewBox="0 0 36 46" fill="none" xmlns="http://www.w3.org/2000/svg" xmlns:xlink="http://www.w3.org/1999/xlink">
<path d="M1.537,43.635L0.893,43.635L0.893,44.279L1.537,44.279L1.537,43.635ZM1.537,0.777L1.537,0.133L0.893,0.133L0.893,0.777L1.537,0.777ZM19.629,0.777L20.274,0.777L20.274,0.133L19.629,0.133L19.629,0.777ZM19.629,25.995L18.985,25.995L18.985,26.639L19.629,26.639L19.629,25.995ZM24.153,25.995L24.153,26.639L24.797,26.639L24.797,25.995L24.153,25.995ZM24.153,14.217L24.153,13.573L23.508,13.573L23.508,14.217L24.153,14.217ZM34.103,14.217L34.748,14.217L34.748,13.573L34.103,13.573L34.103,14.217ZM34.103,43.635L34.103,44.279L34.748,44.279L34.748,43.635L34.103,43.635ZM2.182,43.635L2.182,0.777L0.893,0.777L0.893,43.635L2.182,43.635ZM1.537,1.422L19.629,1.422L19.629,0.133L1.537,0.133L1.537,1.422ZM18.985,0.777L18.985,25.995L20.274,25.995L20.274,0.777L18.985,0.777ZM19.629,26.639L24.153,26.639L24.153,25.35L19.629,25.35L19.629,26.639ZM24.797,25.995L24.797,14.217L23.508,14.217L23.508,25.995L24.797,25.995ZM24.153,14.862L34.103,14.862L34.103,13.573L24.153,13.573L24.153,14.862ZM33.459,14.217L33.459,43.635L34.748,43.635L34.748,14.217L33.459,14.217ZM34.103,42.99L1.537,42.99L1.537,44.279L34.103,44.279L34.103,42.99Z" fill="#DADADA"/>
</svg>
