<svg width="40" height="38" viewBox="0 0 40 38" fill="none" xmlns="http://www.w3.org/2000/svg" xmlns:xlink="http://www.w3.org/1999/xlink">
<path d="M8.744,15.908L8.12,15.223L7.579,15.715L7.932,16.355L8.744,15.908ZM22.294,28.491L21.897,29.328L22.464,29.597L22.925,29.17L22.294,28.491ZM26.817,24.291L27.448,24.97L27.453,24.965L26.817,24.291ZM28.903,23.845L28.614,24.726L28.634,24.732L28.903,23.845ZM36.288,24.925L36.311,23.999L36.285,23.999L36.288,24.925ZM38.282,26.777L39.209,26.777L39.208,26.75L38.282,26.777ZM38.282,33.428L37.355,33.428L37.355,33.437L38.282,33.428ZM36.233,35.348L36.233,34.422L36.233,34.422L36.233,35.348ZM1.359,2.965L0.432,2.965L1.359,2.965ZM3.408,1.063L3.408,0.136L3.408,1.063ZM12.639,2.965L13.565,2.969L13.565,2.965L12.639,2.965ZM13.802,9.822L12.928,10.131L12.932,10.141L13.802,9.822ZM13.304,11.76L12.681,11.074L12.68,11.074L13.304,11.76ZM7.932,16.355C11.009,21.946 15.9,26.482 21.897,29.328L22.691,27.654C17.029,24.967 12.436,20.696 9.555,15.461L7.932,16.355ZM22.925,29.17L27.448,24.97L26.187,23.612L21.664,27.812L22.925,29.17ZM27.453,24.965C27.591,24.835 27.774,24.737 27.984,24.692L27.597,22.88C27.067,22.993 26.575,23.246 26.182,23.617L27.453,24.965ZM27.984,24.692C28.194,24.647 28.413,24.659 28.614,24.726L29.193,22.965C28.679,22.796 28.126,22.767 27.597,22.88L27.984,24.692ZM28.634,24.732C31.107,25.482 33.692,25.86 36.291,25.852L36.285,23.999C33.869,24.006 31.467,23.655 29.172,22.959L28.634,24.732ZM36.265,25.852C36.573,25.859 36.853,25.976 37.052,26.161L38.313,24.803C37.77,24.299 37.052,24.018 36.311,23.999L36.265,25.852ZM37.052,26.161C37.249,26.344 37.349,26.575 37.356,26.803L39.208,26.75C39.187,26.004 38.858,25.309 38.313,24.803L37.052,26.161ZM37.355,26.777L37.355,33.428L39.208,33.428L39.208,26.777L37.355,26.777ZM37.355,33.437C37.357,33.556 37.332,33.676 37.282,33.79L38.98,34.533C39.134,34.182 39.212,33.803 39.208,33.419L37.355,33.437ZM37.282,33.79C37.232,33.905 37.156,34.014 37.055,34.109L38.322,35.461C38.601,35.199 38.826,34.884 38.98,34.533L37.282,33.79ZM37.055,34.109C36.953,34.204 36.829,34.283 36.687,34.338L37.356,36.066C37.713,35.927 38.042,35.723 38.322,35.461L37.055,34.109ZM36.687,34.338C36.545,34.393 36.39,34.422 36.233,34.422L36.233,36.275C36.616,36.275 36.998,36.204 37.356,36.066L36.687,34.338ZM36.233,34.422C27.208,34.422 18.566,31.092 12.204,25.184L10.943,26.542C17.661,32.781 26.759,36.275 36.233,36.275L36.233,34.422ZM12.204,25.184C5.844,19.279 2.285,11.285 2.285,2.965L0.432,2.965C0.432,11.823 4.222,20.302 10.943,26.542L12.204,25.184ZM2.285,2.965C2.285,2.729 2.386,2.488 2.59,2.299L1.329,0.941C0.764,1.465 0.432,2.192 0.432,2.965L2.285,2.965ZM2.59,2.299C2.796,2.107 3.089,1.989 3.408,1.989L3.408,0.136C2.64,0.136 1.891,0.419 1.329,0.941L2.59,2.299ZM3.408,1.989L10.59,1.989L10.59,0.136L3.408,0.136L3.408,1.989ZM10.59,1.989C10.909,1.989 11.202,2.107 11.408,2.299L12.669,0.941C12.107,0.419 11.358,0.136 10.59,0.136L10.59,1.989ZM11.408,2.299C11.612,2.488 11.712,2.729 11.712,2.965L13.565,2.965C13.565,2.192 13.234,1.465 12.669,0.941L11.408,2.299ZM11.712,2.961C11.702,5.397 12.113,7.818 12.928,10.131L14.676,9.514C13.93,7.401 13.556,5.191 13.565,2.969L11.712,2.961ZM12.932,10.141C12.99,10.299 12.998,10.467 12.957,10.627L14.751,11.089C14.886,10.564 14.858,10.013 14.672,9.504L12.932,10.141ZM12.957,10.627C12.915,10.788 12.823,10.944 12.681,11.074L13.926,12.446C14.327,12.082 14.616,11.613 14.751,11.089L12.957,10.627ZM12.68,11.074L8.12,15.223L9.367,16.594L13.927,12.445L12.68,11.074Z" fill="#DADADA"/>
</svg>
