<svg width="62" height="62" viewBox="0 0 62 62" fill="none" xmlns="http://www.w3.org/2000/svg" xmlns:xlink="http://www.w3.org/1999/xlink">
<path d="M58.954,29.793C58.954,45.137 46.515,57.576 31.171,57.576L31.171,60.076C47.896,60.076 61.454,46.518 61.454,29.793L58.954,29.793ZM31.171,57.576C15.826,57.576 3.387,45.137 3.387,29.793L0.887,29.793C0.887,46.518 14.446,60.076 31.171,60.076L31.171,57.576ZM3.387,29.793C3.387,14.449 15.826,2.01 31.171,2.01L31.171,-0.49C14.446,-0.49 0.887,13.068 0.887,29.793L3.387,29.793ZM31.171,2.01C46.515,2.01 58.954,14.449 58.954,29.793L61.454,29.793C61.454,13.068 47.896,-0.49 31.171,-0.49L31.171,2.01Z" fill="#FAFDFF"/>
<path d="M3.132,22.748C2.918,23.98 2.919,23.98 2.92,23.98C2.921,23.98 2.921,23.981 2.922,23.981C2.924,23.981 2.926,23.981 2.928,23.982C2.933,23.982 2.939,23.983 2.946,23.985C2.96,23.987 2.98,23.99 3.005,23.994C3.054,24.001 3.124,24.012 3.213,24.024C3.392,24.047 3.647,24.077 3.97,24.106C4.617,24.162 5.536,24.212 6.655,24.187C8.887,24.138 11.936,23.794 15.187,22.603C21.763,20.196 28.971,14.39 31.994,1.153L29.557,0.597C26.722,13.008 20.108,18.139 14.327,20.256C11.399,21.328 8.635,21.643 6.6,21.688C5.584,21.71 4.756,21.665 4.188,21.615C3.905,21.59 3.686,21.564 3.543,21.545C3.471,21.536 3.418,21.528 3.384,21.523C3.368,21.52 3.356,21.518 3.349,21.517C3.346,21.517 3.344,21.516 3.343,21.516C3.343,21.516 3.343,21.516 3.343,21.516C3.344,21.516 3.344,21.516 3.344,21.516C3.345,21.517 3.345,21.517 3.132,22.748Z" fill="#FAFDFF"/>
<path d="M2.606,35.683C2.468,36.925 2.468,36.925 2.469,36.925C2.469,36.925 2.47,36.925 2.47,36.925C2.471,36.925 2.473,36.926 2.474,36.926C2.477,36.926 2.481,36.927 2.486,36.927C2.496,36.928 2.51,36.93 2.527,36.931C2.561,36.935 2.61,36.939 2.673,36.945C2.798,36.956 2.979,36.97 3.212,36.984C3.676,37.012 4.346,37.04 5.182,37.041C6.855,37.043 9.203,36.936 11.927,36.502C17.366,35.636 24.367,33.456 30.448,28.172L28.808,26.285C23.191,31.166 16.681,33.213 11.534,34.033C8.965,34.442 6.751,34.543 5.185,34.541C4.402,34.541 3.783,34.514 3.364,34.489C3.154,34.476 2.995,34.463 2.89,34.454C2.838,34.45 2.799,34.446 2.775,34.444C2.763,34.442 2.754,34.441 2.749,34.441C2.747,34.441 2.745,34.44 2.744,34.44C2.744,34.44 2.744,34.44 2.744,34.44C2.744,34.44 2.744,34.44 2.744,34.44C2.745,34.44 2.745,34.441 2.606,35.683ZM30.448,28.172C36.422,22.979 39.768,18.068 41.722,13.835C43.673,9.609 44.214,6.102 44.629,3.858L42.171,3.404C41.751,5.676 41.254,8.885 39.452,12.787C37.654,16.682 34.53,21.312 28.808,26.285L30.448,28.172Z" fill="#FAFDFF"/>
<path d="M8.999,48.895C9.034,50.145 9.035,50.145 9.035,50.145C9.035,50.145 9.036,50.145 9.036,50.145C9.037,50.145 9.039,50.145 9.04,50.145C9.043,50.144 9.047,50.144 9.052,50.144C9.063,50.144 9.077,50.143 9.096,50.143C9.133,50.141 9.187,50.139 9.257,50.136C9.396,50.129 9.598,50.118 9.858,50.101C10.378,50.067 11.128,50.006 12.063,49.901C13.933,49.692 16.548,49.306 19.543,48.599C25.516,47.188 33.097,44.475 39.278,39.245L37.663,37.337C31.902,42.211 24.747,44.801 18.969,46.166C16.089,46.846 13.576,47.217 11.785,47.417C10.89,47.517 10.178,47.574 9.692,47.607C9.449,47.623 9.263,47.633 9.14,47.638C9.078,47.641 9.032,47.643 9.002,47.644C8.988,47.645 8.977,47.645 8.97,47.645C8.967,47.646 8.965,47.646 8.963,47.646C8.963,47.646 8.962,47.646 8.962,47.646C8.962,47.646 8.962,47.646 8.962,47.646C8.963,47.646 8.963,47.646 8.999,48.895ZM39.278,39.245C51.468,28.932 54.915,16.75 54.347,10.992L51.859,11.238C52.33,16.019 49.358,27.442 37.663,37.337L39.278,39.245Z" fill="#FAFDFF"/>
<path d="M21.123,57.019C21.143,58.269 21.144,58.269 21.145,58.269C21.145,58.269 21.146,58.269 21.147,58.269C21.149,58.269 21.151,58.269 21.154,58.269C21.159,58.269 21.167,58.269 21.176,58.268C21.194,58.268 21.22,58.267 21.254,58.266C21.32,58.264 21.416,58.26 21.539,58.254C21.786,58.242 22.142,58.22 22.595,58.18C23.5,58.101 24.793,57.952 26.362,57.671C29.497,57.111 33.756,56.024 38.251,53.91C47.272,49.668 57.216,41.294 60.877,24.913L58.437,24.368C54.976,39.851 45.653,47.667 37.187,51.648C32.938,53.646 28.899,54.678 25.922,55.21C24.435,55.476 23.218,55.616 22.377,55.69C21.957,55.726 21.632,55.746 21.415,55.757C21.306,55.763 21.225,55.766 21.172,55.767C21.146,55.768 21.127,55.769 21.115,55.769C21.109,55.769 21.105,55.769 21.103,55.769C21.102,55.769 21.101,55.769 21.101,55.769C21.101,55.769 21.101,55.769 21.101,55.769C21.102,55.769 21.102,55.769 21.123,57.019Z" fill="#FAFDFF"/>
<path d="M12.915,7.35C12.914,8.6 12.914,8.6 12.913,8.6C12.914,8.6 12.913,8.6 12.914,8.6C12.914,8.6 12.915,8.6 12.917,8.6C12.92,8.6 12.926,8.6 12.935,8.6C12.952,8.6 12.979,8.6 13.015,8.601C13.089,8.602 13.2,8.604 13.347,8.609C13.642,8.619 14.08,8.639 14.639,8.679C15.759,8.759 17.363,8.92 19.283,9.241C23.13,9.886 28.21,11.171 33.196,13.724C38.177,16.274 43.037,20.075 46.507,25.748C49.971,31.414 52.104,39.036 51.491,49.327L53.986,49.476C54.626,38.748 52.407,30.604 48.639,24.444C44.877,18.291 39.625,14.207 34.336,11.498C29.053,8.793 23.707,7.448 19.696,6.776C17.687,6.439 16.003,6.27 14.818,6.185C14.225,6.143 13.755,6.122 13.431,6.111C13.269,6.105 13.143,6.103 13.056,6.101C13.013,6.1 12.979,6.1 12.955,6.1C12.944,6.1 12.934,6.1 12.928,6.1C12.924,6.1 12.921,6.1 12.919,6.1C12.918,6.1 12.917,6.1 12.917,6.1C12.916,6.1 12.915,6.1 12.915,7.35Z" fill="#FAFDFF"/>
<path d="M11.159,7.546C10.643,10.889 10.233,22.463 14.497,33.438C16.637,38.947 19.975,44.357 25.121,48.483C30.279,52.618 37.179,55.402 46.324,55.761L46.422,53.263C37.762,52.923 31.389,50.304 26.685,46.532C21.967,42.75 18.853,37.747 16.827,32.533C12.758,22.061 13.164,10.948 13.63,7.927L11.159,7.546Z" fill="#FAFDFF"/>
<path d="M50.865,51.315L13.465,6.597L11.547,8.2L48.948,52.919L50.865,51.315Z" fill="#FAFDFF"/>
<path d="M54.464,8.146C55.807,8.146 56.897,7.057 56.897,5.713C56.897,4.369 55.807,3.279 54.464,3.279C53.12,3.279 52.03,4.369 52.03,5.713C52.03,7.057 53.12,8.146 54.464,8.146Z" fill="#42A5F2"/>
<path d="M54.548,3.874C53.53,3.445 52.357,3.922 51.928,4.939C51.498,5.957 51.975,7.13 52.993,7.56L54.548,3.874ZM57.608,8.542L56.053,9.8L56.053,9.8L57.608,8.542ZM3.426,52.379L1.872,53.637L1.872,53.637L3.426,52.379ZM2.056,40.251L3.978,40.802L3.978,40.802L2.056,40.251ZM4.609,38.899C4.996,37.865 4.471,36.712 3.437,36.325C2.402,35.938 1.25,36.463 0.863,37.497L4.609,38.899ZM52.993,7.56C54.259,8.093 55.279,8.842 56.053,9.8L59.163,7.285C57.932,5.762 56.354,4.636 54.548,3.874L52.993,7.56ZM56.053,9.8C58.386,12.684 58.479,17.605 55.683,23.824C52.939,29.927 47.627,36.701 40.338,42.598L42.854,45.708C50.526,39.501 56.28,32.25 59.331,25.465C62.33,18.795 62.948,11.963 59.163,7.284L56.053,9.8ZM40.338,42.598C33.049,48.495 25.315,52.276 18.774,53.686C12.108,55.123 7.315,54.005 4.981,51.122L1.872,53.637C5.657,58.316 12.468,59.137 19.617,57.596C26.89,56.028 35.182,51.914 42.854,45.708L40.338,42.598ZM4.981,51.122C3.141,48.846 2.682,45.328 3.978,40.802L0.133,39.7C-1.349,44.871 -1.12,49.939 1.872,53.637L4.981,51.122ZM3.978,40.802C4.156,40.182 4.366,39.548 4.609,38.899L0.863,37.497C0.585,38.238 0.342,38.972 0.133,39.701L3.978,40.802Z" fill="#42A5F2"/>
</svg>
